<?xml version="1.0" encoding="UTF-8"?>
<!DOCTYPE svg PUBLIC "-//W3C//DTD SVG 1.1 Tiny//EN" "http://www.w3.org/Graphics/SVG/1.1/DTD/svg11-tiny.dtd">
<svg baseProfile="tiny" height="30px" version="1.1" viewBox="0 0 30 30" width="30px" x="0px" xmlns="http://www.w3.org/2000/svg" xmlns:xlink="http://www.w3.org/1999/xlink" y="0px">
<path d="M 12.395539,24.885904 28.473578,8.9582729 C 29.138549,8.286705 29.182089,7.0689123 28.555388,6.4448427 L 27.144962,5.0357381 C 26.837545,4.7243622 26.41798,4.5568009 25.962792,4.5568009 c -0.485535,0 -0.971069,0.2045045 -1.327303,0.5607392 L 11.014142,18.592431 5.4014723,13.359745 C 5.0412797,13.000873 4.5557457,12.795049 4.0649337,12.800326 c -0.4525486,0 -0.8655163,0.167562 -1.1729339,0.477617 l -1.4130627,1.409105 c -0.3074169,0.307417 -0.47893717,0.726982 -0.47893717,1.178212 0,0.490812 0.20978227,0.976346 0.56601647,1.336538 l 7.9295115,7.541612 c 0.1741586,0.184714 0.3865798,0.319291 0.6319861,0.420884 0.682123,0.457827 1.646593,0.343041 2.268025,-0.27839 z" fill="rgb(255,255,255)"/>
</svg>
