<?xml version="1.0" encoding="utf-8"?>
<!-- Generator: Adobe Illustrator 15.0.2, SVG Export Plug-In  -->
<!DOCTYPE svg PUBLIC "-//W3C//DTD SVG 1.1//EN" "http://www.w3.org/Graphics/SVG/1.1/DTD/svg11.dtd" [
	<!ENTITY ns_flows "http://ns.adobe.com/Flows/1.0/">
]>
<svg version="1.1"
	 xmlns="http://www.w3.org/2000/svg" xmlns:xlink="http://www.w3.org/1999/xlink" xmlns:a="http://ns.adobe.com/AdobeSVGViewerExtensions/3.0/"
	 x="0px" y="0px" width="96px" height="96px" viewBox="0 0 96 96" overflow="visible" enable-background="new 0 0 96 96"
	 xml:space="preserve">
<defs>
</defs>
<path opacity="0.1" fill="#FFFFFF" enable-background="new    " d="M48,0C12.438,0,0,12.438,0,47.999C0,83.56,12.438,96,48,96
	c35.563,0,48-12.44,48-48.001C96,12.438,83.563,0,48,0z M69.874,73.519c0,1.343-1.088,2.43-2.432,2.43H54.076V61.367H41.924v14.582
	H28.558c-1.344,0-2.432-1.087-2.432-2.43V55.585L48,33.712l21.874,21.874V73.519z M75.342,55.899L48,28.557L20.658,55.899
	l-4.253-4.253l9.721-9.722V27.342h7.291v7.291L48,20.051l31.595,31.595L75.342,55.899z"/>
</svg>
