<?xml version="1.0" encoding="utf-8"?>
<!-- Generator: Adobe Illustrator 15.0.2, SVG Export Plug-In  -->
<!DOCTYPE svg PUBLIC "-//W3C//DTD SVG 1.1//EN" "http://www.w3.org/Graphics/SVG/1.1/DTD/svg11.dtd" [
	<!ENTITY ns_flows "http://ns.adobe.com/Flows/1.0/">
]>
<svg version="1.1"
	 xmlns="http://www.w3.org/2000/svg" xmlns:xlink="http://www.w3.org/1999/xlink" xmlns:a="http://ns.adobe.com/AdobeSVGViewerExtensions/3.0/"
	 x="0px" y="0px" width="96px" height="96px" viewBox="0 0 96 96" overflow="visible" enable-background="new 0 0 96 96"
	 xml:space="preserve">
<defs>
</defs>
<path opacity="0.1" fill="#FFFFFF" enable-background="new    " d="M48,0C12.439,0,0,12.438,0,47.999C0,83.56,12.439,96,48,96
	c35.563,0,48-12.44,48-48.001C96,12.438,83.563,0,48,0z M63.797,27.897v29.165H24.911L15.19,27.897H63.797z M34.633,77.824
	c-2.684,0-4.861-2.179-4.861-4.861c0-2.682,2.177-4.86,4.861-4.86c2.682,0,4.861,2.179,4.861,4.86
	C39.494,75.646,37.315,77.824,34.633,77.824z M58.937,77.824c-2.682,0-4.86-2.179-4.86-4.861c0-2.682,2.179-4.86,4.86-4.86
	c2.682,0,4.861,2.179,4.861,4.86C63.797,75.646,61.619,77.824,58.937,77.824z M78.38,23.037h-7.292v42.636H24.911
	c-1.346,0-2.43-1.087-2.43-2.43s1.084-2.431,2.43-2.431h41.317V18.176H78.38c1.343,0,2.43,1.085,2.43,2.43
	C80.81,21.949,79.723,23.037,78.38,23.037z"/>
</svg>
