<?xml version="1.0" encoding="utf-8"?>
<!-- Generator: Adobe Illustrator 15.0.2, SVG Export Plug-In  -->
<!DOCTYPE svg PUBLIC "-//W3C//DTD SVG 1.1//EN" "http://www.w3.org/Graphics/SVG/1.1/DTD/svg11.dtd" [
	<!ENTITY ns_flows "http://ns.adobe.com/Flows/1.0/">
]>
<svg version="1.1"
	 xmlns="http://www.w3.org/2000/svg" xmlns:xlink="http://www.w3.org/1999/xlink" xmlns:a="http://ns.adobe.com/AdobeSVGViewerExtensions/3.0/"
	 x="0px" y="0px" width="96px" height="96px" viewBox="0 0 96 96" overflow="visible" enable-background="new 0 0 96 96"
	 xml:space="preserve">
<defs>
</defs>
<path opacity="0.1" fill="#FFFFFF" enable-background="new    " d="M65.013,43.141H30.987c-1.345,0-2.43,1.087-2.43,2.43
	s1.085,2.43,2.43,2.43h34.025c1.343,0,2.43-1.087,2.43-2.43S66.356,43.141,65.013,43.141z M65.013,52.862H30.987
	c-1.345,0-2.43,1.087-2.43,2.431s1.085,2.43,2.43,2.43h34.025c1.343,0,2.43-1.087,2.43-2.43S66.356,52.862,65.013,52.862z M48,0
	C12.439,0,0,12.438,0,47.999C0,83.56,12.439,96,48,96c35.563,0,48-12.44,48-48.001C96,12.438,83.563,0,48,0z M74.734,72.68
	c0,1.127-1.094,2.053-2.431,2.053H23.696c-1.336,0-2.431-0.926-2.431-2.051v-49.36c0-1.129,1.094-2.055,2.431-2.055h48.607
	c1.336,0,2.431,0.926,2.431,2.055V72.68z M65.013,33.419H30.987c-1.345,0-2.43,1.087-2.43,2.43c0,1.344,1.085,2.431,2.43,2.431
	h34.025c1.343,0,2.43-1.087,2.43-2.431C67.443,34.506,66.356,33.419,65.013,33.419z"/>
</svg>
