<?xml version="1.0" encoding="utf-8"?>
<!-- Generator: Adobe Illustrator 15.0.2, SVG Export Plug-In  -->
<!DOCTYPE svg PUBLIC "-//W3C//DTD SVG 1.1//EN" "http://www.w3.org/Graphics/SVG/1.1/DTD/svg11.dtd" [
	<!ENTITY ns_flows "http://ns.adobe.com/Flows/1.0/">
]>
<svg version="1.1"
	 xmlns="http://www.w3.org/2000/svg" xmlns:xlink="http://www.w3.org/1999/xlink" xmlns:a="http://ns.adobe.com/AdobeSVGViewerExtensions/3.0/"
	 x="0px" y="0px" width="96px" height="96px" viewBox="0 0 96 96" overflow="visible" enable-background="new 0 0 96 96"
	 xml:space="preserve">
<defs>
</defs>
<path opacity="0.1" fill="#FFFFFF" d="M48,0C12.438,0,0,12.438,0,48c0,35.56,12.438,48,48,48c35.562,0,48-12.44,48-48
	C96,12.438,83.562,0,48,0z M25.032,68.297c0.17,0.08-3.562-0.019-3.298-0.065c-0.826-0.068-1.657-0.177-2.481-0.327
	c-2.134-2.387-3.839-4.874-5.047-7.606c0,0,1.138,0.355,2.533,0.585c3.947,0.653,7.896,0.709,11.538,0.03
	c1.831,2.034,3.977,3.776,6.358,5.158C31.615,67.384,28.364,68.16,25.032,68.297z M80.128,75.877c-2.212,2.222-5.809,2.222-8.034,0
	L60.883,64.666c-3.832,2.384-8.336,3.787-13.179,3.787c-13.804,0-24.998-11.194-24.998-24.999c0-13.807,11.194-24.999,24.998-24.999
	c13.81,0,25.001,11.192,25.001,24.999c0,4.843-1.4,9.347-3.788,13.176l11.211,11.213C82.349,70.063,82.349,73.659,80.128,75.877z
	 M47.704,26.41c-9.398,0-17.046,7.642-17.046,17.044c0,9.4,7.647,17.044,17.046,17.044c9.401,0,17.044-7.644,17.044-17.044
	C64.748,34.052,57.105,26.41,47.704,26.41z M57.077,56.278l-8.822-3.333c-1.061,2.228-2.401,4.247-3.954,6.041
	c-2.211-0.484-4.244-1.436-6.008-2.736c1.676-1.473,3.116-3.276,4.229-5.47l-8.96-3.384l9.805-8.096l9.803-8.106l2,12.561
	l1.99,12.463C57.133,56.237,57.105,56.258,57.077,56.278z"/>
</svg>
