<?xml version="1.0" encoding="utf-8"?>
<!-- Generator: Adobe Illustrator 15.0.0, SVG Export Plug-In  -->
<!DOCTYPE svg PUBLIC "-//W3C//DTD SVG 1.1//EN" "http://www.w3.org/Graphics/SVG/1.1/DTD/svg11.dtd" [
	<!ENTITY ns_flows "http://ns.adobe.com/Flows/1.0/">
]>
<svg version="1.1"
	 xmlns="http://www.w3.org/2000/svg" xmlns:xlink="http://www.w3.org/1999/xlink" xmlns:a="http://ns.adobe.com/AdobeSVGViewerExtensions/3.0/"
	 x="0px" y="0px" width="96px" height="96px" viewBox="0 0 96 96" overflow="visible" enable-background="new 0 0 96 96"
	 xml:space="preserve">
<defs>
</defs>
<rect id="BOUNDING_BOX_1_" fill="none" width="96" height="96"/>
<path id="SHADOW_1_" opacity="0.4" d="M88.023,49c0,29.633-10.364,40-40,40c-29.635,0-40-10.367-40-40c0-29.634,10.366-40,40-40
	C77.659,9,88.023,19.365,88.023,49z"/>
<linearGradient id="SVGID_4_" gradientUnits="userSpaceOnUse" x1="48.0005" y1="8.2505" x2="48.0005" y2="88.23">
	<stop  offset="0" style="stop-color:#FFFFFF"/>
	<stop  offset="1" style="stop-color:#E6E2D8"/>
</linearGradient>
<path fill="url(#SVGID_4_)" d="M48,87.979c29.637,0,40-10.367,40-40C88,18.964,78.054,8.428,49.822,8h-3.645
	C17.978,8.427,8.021,18.944,8.001,47.891v0.174C8.021,77.631,18.395,87.979,48,87.979z"/>
<linearGradient id="SVGID_5_" gradientUnits="userSpaceOnUse" x1="48.0005" y1="24.7505" x2="48.0005" y2="9.0005">
	<stop  offset="0" style="stop-color:#FFFFFF;stop-opacity:0"/>
	<stop  offset="1" style="stop-color:#E6E2D8"/>
</linearGradient>
<path fill="url(#SVGID_5_)" d="M49.909,8h-3.817C26.033,8.32,15.221,13.757,10.664,27.334h74.673C80.78,13.757,69.968,8.32,49.909,8
	z"/>
<g>
	<defs>
		<path id="SVGID_3_" d="M32,20.499C32,21.881,30.879,23,29.498,23c-1.378,0-2.497-1.119-2.497-2.501
			c0-1.38,1.119-2.498,2.497-2.498C30.879,18.001,32,19.119,32,20.499"/>
	</defs>
	<clipPath id="SVGID_6_">
		<use xlink:href="#SVGID_3_"  overflow="visible"/>
	</clipPath>
	
		<radialGradient id="SVGID_7_" cx="-299.9702" cy="413.71" r="1.7509" gradientTransform="matrix(0 2.088 2.0939 0 -836.7825 645.8302)" gradientUnits="userSpaceOnUse">
		<stop  offset="0" style="stop-color:#FFFFFF"/>
		<stop  offset="0.1411" style="stop-color:#FFFFFF"/>
		<stop  offset="0.5743" style="stop-color:#B2B2B2"/>
		<stop  offset="1" style="stop-color:#000000"/>
	</radialGradient>
	<rect x="27.001" y="18.001" clip-path="url(#SVGID_6_)" fill="url(#SVGID_7_)" width="4.999" height="4.999"/>
</g>
<path opacity="0.05" d="M29.5,24.75c1.999,0,3.625-1.626,3.625-3.625V9.168c-2.654,0.5-5.064,1.169-7.25,2.016v9.942
	C25.875,23.125,27.501,24.75,29.5,24.75z"/>
<path opacity="0.07" d="M29.5,24.25c1.723,0,3.125-1.402,3.125-3.125V9.271c-2.26,0.449-4.339,1.024-6.25,1.729v10.125
	C26.375,22.849,27.777,24.25,29.5,24.25z"/>
<path opacity="0.1" d="M29.5,23.75c1.447,0,2.625-1.178,2.625-2.625V9.375c-1.873,0.392-3.623,0.871-5.25,1.443v10.308
	C26.875,22.573,28.053,23.75,29.5,23.75z"/>
<path opacity="0.15" d="M29.5,23.25c1.172,0,2.125-0.953,2.125-2.125V9.478c-1.494,0.33-2.916,0.711-4.25,1.158v10.49
	C27.375,22.297,28.328,23.25,29.5,23.25z"/>
<path opacity="0.15" d="M29.5,22.75c0.896,0,1.625-0.729,1.625-1.625V9.585c-1.133,0.263-2.211,0.565-3.25,0.896v10.644
	C27.875,22.021,28.604,22.75,29.5,22.75z"/>
<linearGradient id="SVGID_8_" gradientUnits="userSpaceOnUse" x1="28.375" y1="15.4814" x2="30.625" y2="15.4814">
	<stop  offset="0" style="stop-color:#FFFFFF"/>
	<stop  offset="0.5743" style="stop-color:#B2B2B2"/>
	<stop  offset="1" style="stop-color:#FFFFFF"/>
</linearGradient>
<path fill="url(#SVGID_8_)" d="M29.5,21.25c0.621,0,1.125-0.504,1.125-1.125V9.712c-0.773,0.188-1.521,0.395-2.25,0.617v9.796
	C28.375,20.747,28.879,21.25,29.5,21.25z"/>
<g>
	<defs>
		<path id="SVGID_2_" d="M50,20.499C50,21.881,48.879,23,47.498,23c-1.378,0-2.497-1.119-2.497-2.501
			c0-1.38,1.119-2.498,2.497-2.498C48.879,18.001,50,19.119,50,20.499"/>
	</defs>
	<clipPath id="SVGID_9_">
		<use xlink:href="#SVGID_2_"  overflow="visible"/>
	</clipPath>
	
		<radialGradient id="SVGID_10_" cx="-299.9702" cy="422.3076" r="1.7504" gradientTransform="matrix(0 2.088 2.0939 0 -836.7825 645.8302)" gradientUnits="userSpaceOnUse">
		<stop  offset="0" style="stop-color:#FFFFFF"/>
		<stop  offset="0.1411" style="stop-color:#FFFFFF"/>
		<stop  offset="0.5743" style="stop-color:#B2B2B2"/>
		<stop  offset="1" style="stop-color:#000000"/>
	</radialGradient>
	<rect x="45.001" y="18.001" clip-path="url(#SVGID_9_)" fill="url(#SVGID_10_)" width="4.999" height="4.999"/>
</g>
<path opacity="0.05" d="M43.875,21.125c0,1.999,1.626,3.625,3.625,3.625s3.625-1.626,3.625-3.625V8.375
	c0-0.121-0.024-0.235-0.035-0.353C50.082,7.996,49.057,7.979,48,7.979c-1.412,0-2.768,0.031-4.093,0.08
	c-0.01,0.106-0.032,0.208-0.032,0.317V21.125z"/>
<path opacity="0.07" d="M44.375,21.125c0,1.723,1.402,3.125,3.125,3.125s3.125-1.402,3.125-3.125V8.375
	c0-0.126-0.022-0.246-0.037-0.367C49.741,7.99,48.881,7.979,48,7.979c-1.234,0-2.423,0.025-3.592,0.062
	c-0.012,0.111-0.033,0.22-0.033,0.335V21.125z"/>
<path opacity="0.1" d="M44.875,21.125c0,1.447,1.178,2.625,2.625,2.625s2.625-1.178,2.625-2.625V8.375
	c0-0.128-0.02-0.25-0.038-0.373C49.399,7.991,48.71,7.979,48,7.979c-1.057,0-2.082,0.017-3.09,0.044
	c-0.016,0.116-0.035,0.232-0.035,0.353V21.125z"/>
<path opacity="0.15" d="M45.375,21.125c0,1.172,0.953,2.125,2.125,2.125s2.125-0.953,2.125-2.125V8.375
	c0-0.13-0.016-0.255-0.038-0.378C49.06,7.99,48.54,7.979,48,7.979c-0.881,0-1.741,0.011-2.588,0.029
	c-0.021,0.12-0.037,0.241-0.037,0.367V21.125z"/>
<path opacity="0.15" d="M45.875,21.125c0,0.896,0.729,1.625,1.625,1.625s1.625-0.729,1.625-1.625V8.375
	c0-0.133-0.021-0.261-0.051-0.384C48.715,7.988,48.365,7.979,48,7.979c-0.707,0-1.393,0.012-2.078,0.023
	c-0.027,0.12-0.047,0.244-0.047,0.373V21.125z"/>
<linearGradient id="SVGID_11_" gradientUnits="userSpaceOnUse" x1="46.375" y1="14.6147" x2="48.625" y2="14.6147">
	<stop  offset="0" style="stop-color:#FFFFFF"/>
	<stop  offset="0.5743" style="stop-color:#B2B2B2"/>
	<stop  offset="1" style="stop-color:#FFFFFF"/>
</linearGradient>
<path fill="url(#SVGID_11_)" d="M47.5,21.25c0.621,0,1.125-0.504,1.125-1.125V7.986C48.414,7.985,48.213,7.979,48,7.979
	c-0.553,0-1.086,0.011-1.625,0.019v12.128C46.375,20.747,46.879,21.25,47.5,21.25z"/>
<g>
	<defs>
		<path id="SVGID_1_" d="M68,20.499C68,21.881,66.879,23,65.498,23c-1.378,0-2.497-1.119-2.497-2.501
			c0-1.38,1.119-2.498,2.497-2.498C66.879,18.001,68,19.119,68,20.499"/>
	</defs>
	<clipPath id="SVGID_12_">
		<use xlink:href="#SVGID_1_"  overflow="visible"/>
	</clipPath>
	
		<radialGradient id="SVGID_13_" cx="-299.9702" cy="430.9033" r="1.7509" gradientTransform="matrix(0 2.088 2.0939 0 -836.7825 645.8302)" gradientUnits="userSpaceOnUse">
		<stop  offset="0" style="stop-color:#FFFFFF"/>
		<stop  offset="0.1411" style="stop-color:#FFFFFF"/>
		<stop  offset="0.5743" style="stop-color:#B2B2B2"/>
		<stop  offset="1" style="stop-color:#000000"/>
	</radialGradient>
	<rect x="63.001" y="18.001" clip-path="url(#SVGID_12_)" fill="url(#SVGID_13_)" width="4.999" height="4.999"/>
</g>
<path opacity="0.05" d="M65.5,24.75c1.999,0,3.625-1.626,3.625-3.625V10.817c-2.193-0.772-4.607-1.374-7.25-1.822v12.13
	C61.875,23.125,63.501,24.75,65.5,24.75z"/>
<path opacity="0.07" d="M65.5,24.25c1.723,0,3.125-1.402,3.125-3.125v-10.49c-1.916-0.642-4.001-1.155-6.25-1.557v12.047
	C62.375,22.849,63.777,24.25,65.5,24.25z"/>
<path opacity="0.1" d="M65.5,23.75c1.447,0,2.625-1.178,2.625-2.625V10.482c-1.635-0.522-3.38-0.962-5.25-1.314v11.958
	C62.875,22.573,64.053,23.75,65.5,23.75z"/>
<path opacity="0.15" d="M65.5,23.25c1.172,0,2.125-0.953,2.125-2.125V10.329c-1.341-0.408-2.756-0.761-4.25-1.058v11.854
	C63.375,22.297,64.328,23.25,65.5,23.25z"/>
<path opacity="0.15" d="M65.5,22.75c0.896,0,1.625-0.729,1.625-1.625v-10.95c-1.037-0.3-2.123-0.565-3.25-0.801v11.751
	C63.875,22.021,64.604,22.75,65.5,22.75z"/>
<linearGradient id="SVGID_14_" gradientUnits="userSpaceOnUse" x1="64.375" y1="15.3643" x2="66.625" y2="15.3643">
	<stop  offset="0" style="stop-color:#FFFFFF"/>
	<stop  offset="0.5743" style="stop-color:#B2B2B2"/>
	<stop  offset="1" style="stop-color:#FFFFFF"/>
</linearGradient>
<path fill="url(#SVGID_14_)" d="M65.5,21.25c0.621,0,1.125-0.504,1.125-1.125V10.029c-0.727-0.201-1.48-0.382-2.25-0.552v10.648
	C64.375,20.747,64.879,21.25,65.5,21.25z"/>
<radialGradient id="SVGID_15_" cx="69" cy="69" r="22.2772" gradientTransform="matrix(0.7117 -0.7025 0.2007 0.2034 6.0401 103.4365)" gradientUnits="userSpaceOnUse">
	<stop  offset="0" style="stop-color:#FFFFFF;stop-opacity:0.8"/>
	<stop  offset="0.85" style="stop-color:#FFFFFF;stop-opacity:0.2"/>
	<stop  offset="1" style="stop-color:#FFFFFF;stop-opacity:0"/>
</radialGradient>
<path fill="url(#SVGID_15_)" d="M86.329,51.672c-2.682-2.681-12.61,2.904-22.181,12.477C54.575,73.719,48.99,83.65,51.671,86.33
	c2.683,2.68,12.61-2.908,22.182-12.479C83.422,64.281,89.009,54.352,86.329,51.672z"/>
<radialGradient id="SVGID_16_" cx="72.9844" cy="63.2783" r="36.7802" gradientUnits="userSpaceOnUse">
	<stop  offset="0" style="stop-color:#FFFFFF"/>
	<stop  offset="1" style="stop-color:#E6E2D8"/>
</radialGradient>
<path fill="url(#SVGID_16_)" d="M47.08,87.988c27.717-0.246,40.179-11.959,40.921-38.781C80.322,78.488,49.351,87.482,47.08,87.988z
	"/>
<linearGradient id="SVGID_17_" gradientUnits="userSpaceOnUse" x1="80.1885" y1="81.6602" x2="69.9342" y2="71.0641">
	<stop  offset="0" style="stop-color:#FFFFFF"/>
	<stop  offset="0.1554" style="stop-color:#F6F5F4"/>
	<stop  offset="0.4294" style="stop-color:#DDDCD6"/>
	<stop  offset="0.7871" style="stop-color:#B6B2A7"/>
	<stop  offset="1" style="stop-color:#9C9787"/>
</linearGradient>
<path fill="url(#SVGID_17_)" d="M87.952,51.211C80.274,80.486,51.35,87.482,49.081,87.988
	C76.798,87.742,87.209,78.029,87.952,51.211z"/>
<linearGradient id="SVGID_18_" gradientUnits="userSpaceOnUse" x1="34.2998" y1="62.5342" x2="63.9661" y2="26.8675">
	<stop  offset="0" style="stop-color:#96D63A"/>
	<stop  offset="1" style="stop-color:#0F581C"/>
</linearGradient>
<path fill="url(#SVGID_18_)" d="M70.37,32.507c-0.338-1.117-1.291-1.937-2.446-2.102l-0.875-0.125
	c-0.141-0.021-0.283-0.03-0.424-0.03c-0.718,0-1.417,0.257-1.966,0.734c-0.27,0.234-6.667,5.804-12.094,12.352
	c-4.34,5.235-7.384,9.725-9.285,12.786l-7.468-10.895c-0.561-0.818-1.488-1.305-2.475-1.305c-0.045,0-0.091,0.001-0.137,0.003
	c-1.037,0.048-1.976,0.628-2.482,1.534l-4.75,8.499c-0.389,0.697-0.484,1.521-0.266,2.289c0.221,0.768,0.736,1.416,1.436,1.802
	c0.027,0.016,3.465,1.957,7.281,5.946c2.529,2.644,5.467,7.13,5.496,7.175c0.557,0.854,1.504,1.361,2.512,1.361
	c0.08,0,0.162-0.004,0.244-0.012c1.097-0.088,2.057-0.771,2.501-1.779c0.046-0.104,4.673-10.516,12.014-20.74
	c6.692-9.32,12.256-14.337,12.312-14.386C70.367,34.835,70.708,33.624,70.37,32.507z"/>
<path fill="#FFFFFF" d="M69.498,34.613C69.442,34.663,63.879,39.68,57.187,49c-7.341,10.225-11.968,20.637-12.014,20.74
	c-0.444,1.008-1.404,1.691-2.501,1.779c-0.082,0.008-0.164,0.012-0.244,0.012c-1.008,0-1.955-0.508-2.512-1.361
	c-0.029-0.045-2.967-4.531-5.496-7.175c-3.816-3.989-7.254-5.931-7.281-5.946c-0.699-0.386-1.215-1.034-1.436-1.802
	c-0.031-0.109-0.041-0.222-0.061-0.333c-0.076,0.44-0.064,0.895,0.061,1.333c0.221,0.768,0.736,1.416,1.436,1.802
	c0.027,0.016,3.465,1.957,7.281,5.946c2.529,2.644,5.467,7.13,5.496,7.175c0.557,0.854,1.504,1.361,2.512,1.361
	c0.08,0,0.162-0.004,0.244-0.012c1.097-0.088,2.057-0.771,2.501-1.779c0.046-0.104,4.673-10.516,12.014-20.74
	c6.692-9.32,12.256-14.337,12.312-14.386c0.775-0.694,1.127-1.734,0.954-2.743C70.342,33.531,70.016,34.15,69.498,34.613z"/>
<path opacity="0.4" d="M25.969,54.958l4.75-8.499c0.507-0.906,1.445-1.486,2.482-1.534c0.046-0.002,0.092-0.003,0.137-0.003
	c0.986,0,1.914,0.486,2.475,1.305l7.468,10.895c1.901-3.061,4.945-7.551,9.285-12.786c5.427-6.548,11.824-12.118,12.094-12.352
	c0.549-0.477,1.248-0.734,1.966-0.734c0.141,0,0.283,0.01,0.424,0.03l0.875,0.125c1.155,0.165,2.108,0.985,2.446,2.102
	c0.036,0.12,0.062,0.242,0.082,0.364c0.075-0.447,0.055-0.913-0.082-1.364c-0.338-1.117-1.291-1.937-2.446-2.102l-0.875-0.125
	c-0.141-0.021-0.283-0.03-0.424-0.03c-0.718,0-1.417,0.257-1.966,0.734c-0.27,0.234-6.667,5.804-12.094,12.352
	c-4.34,5.235-7.384,9.725-9.285,12.786l-7.468-10.895c-0.561-0.818-1.488-1.305-2.475-1.305c-0.045,0-0.091,0.001-0.137,0.003
	c-1.037,0.048-1.976,0.628-2.482,1.534l-4.75,8.499c-0.334,0.598-0.438,1.287-0.326,1.956C25.7,55.582,25.802,55.258,25.969,54.958z
	"/>
</svg>
